<?xml version="1.0" encoding="UTF-8" standalone="no"?>
<!-- Created with Inkscape (http://www.inkscape.org/) -->

<svg
   xmlns:dc="http://purl.org/dc/elements/1.1/"
   xmlns:cc="http://creativecommons.org/ns#"
   xmlns:rdf="http://www.w3.org/1999/02/22-rdf-syntax-ns#"
   xmlns:svg="http://www.w3.org/2000/svg"
   xmlns="http://www.w3.org/2000/svg"
   xmlns:sodipodi="http://sodipodi.sourceforge.net/DTD/sodipodi-0.dtd"
   xmlns:inkscape="http://www.inkscape.org/namespaces/inkscape"
   width="48"
   height="48"
   viewBox="0 0 48 48.000001"
   id="svg2"
   version="1.1"
   inkscape:version="0.91 r13725"
   sodipodi:docname="dreampie-3.6.svg">
  <defs
     id="defs4" />
  <sodipodi:namedview
     id="base"
     pagecolor="#ffffff"
     bordercolor="#666666"
     borderopacity="1.0"
     inkscape:pageopacity="0.0"
     inkscape:pageshadow="2"
     inkscape:zoom="3.9841772"
     inkscape:cx="-6.3796666"
     inkscape:cy="-8.5019857"
     inkscape:document-units="px"
     inkscape:current-layer="layer1"
     showgrid="false"
     units="px"
     inkscape:window-width="1920"
     inkscape:window-height="1128"
     inkscape:window-x="0"
     inkscape:window-y="24"
     inkscape:window-maximized="1" />
  <metadata
     id="metadata7">
    <rdf:RDF>
      <cc:Work
         rdf:about="">
        <dc:format>image/svg+xml</dc:format>
        <dc:type
           rdf:resource="http://purl.org/dc/dcmitype/StillImage" />
        <dc:title />
      </cc:Work>
    </rdf:RDF>
  </metadata>
  <g
     inkscape:label="Layer 1"
     inkscape:groupmode="layer"
     id="layer1"
     transform="translate(0,-1004.3622)">
    <path
       style="fill:#89ff89;fill-opacity:1;stroke:none;stroke-width:5;stroke-miterlimit:4;stroke-dasharray:none"
       d="m 0,1004.3622 48,0 0,48 -48,0 z"
       id="rect4136" />
    <g
       id="g4178"
       transform="translate(-0.77271128,0)">
      <g
         style="font-style:normal;font-weight:normal;font-size:40px;line-height:125%;font-family:sans-serif;letter-spacing:-6px;word-spacing:0px;fill:#000000;fill-opacity:1;stroke:none;stroke-width:1px;stroke-linecap:butt;stroke-linejoin:miter;stroke-opacity:1"
         id="text4138">
        <path
           d="m 22.275154,1033.9066 4.87793,0 0,5.376 -4.87793,0 0,-5.376 z"
           style="font-style:normal;font-variant:normal;font-weight:bold;font-stretch:normal;font-size:30px;font-family:monospace;-inkscape-font-specification:'monospace Bold';text-align:center;letter-spacing:0px;text-anchor:middle"
           id="path4142" />
      </g>
      <g
         style="font-style:normal;font-weight:normal;font-size:40px;line-height:125%;font-family:sans-serif;letter-spacing:-6px;word-spacing:0px;fill:#000000;fill-opacity:1;stroke:none;stroke-width:1px;stroke-linecap:butt;stroke-linejoin:miter;stroke-opacity:1"
         id="text4170">
        <path
           d="m 11.504277,1029.4974 -2.3144529,0 0,-3.8086 2.3144529,0 q 1.611328,0 2.490235,-0.6298 0.893554,-0.6446 0.893554,-1.8018 0,-1.2158 -0.893554,-1.8896 -0.878907,-0.6885 -2.490235,-0.6885 -1.230469,0 -2.6367185,0.3076 -1.40625,0.3076 -2.9150391,0.8935 l 0,-3.9257 q 1.5087891,-0.4541 2.9736328,-0.6885 1.4648438,-0.249 2.8124998,-0.249 3.457031,0 5.390625,1.5088 1.933594,1.5087 1.933594,4.1601 0,1.9483 -1.113281,3.1934 -1.113282,1.2304 -3.178711,1.6113 2.34375,0.4102 3.574219,1.875 1.230468,1.4502 1.230468,3.8232 0,3.1788 -2.036133,4.8487 -2.036132,1.6699 -5.917968,1.6699 -1.6552737,0 -3.2666018,-0.2783 -1.5966797,-0.2783 -3.0615235,-0.8057 l 0,-4.0137 q 1.3769532,0.6885 2.9736328,1.0547 1.5966797,0.3516 3.3544925,0.3516 1.757812,0 2.783203,-0.8057 1.02539,-0.8203 1.02539,-2.1972 0,-1.6846 -1.02539,-2.5928 -1.025391,-0.9229 -2.900391,-0.9229 z"
           style="font-style:normal;font-variant:normal;font-weight:bold;font-stretch:normal;font-size:30px;font-family:monospace;-inkscape-font-specification:'monospace Bold';text-align:center;letter-spacing:0px;text-anchor:middle"
           id="path4145" />
      </g>
      <g
         style="font-style:normal;font-weight:normal;font-size:40px;line-height:125%;font-family:sans-serif;letter-spacing:-6px;word-spacing:0px;fill:#000000;fill-opacity:1;stroke:none;stroke-width:1px;stroke-linecap:butt;stroke-linejoin:miter;stroke-opacity:1"
         id="text4174">
        <path
           d="m 37.235481,1028.3256 q -1.40625,0 -2.15332,1.0254 -0.732422,1.0107 -0.732422,2.9443 0,1.9189 0.732422,2.9443 0.74707,1.0108 2.15332,1.0108 1.40625,0 2.153321,-1.0108 0.761718,-1.0254 0.761718,-2.9443 0,-1.919 -0.761718,-2.9443 -0.747071,-1.0254 -2.153321,-1.0254 z m 5.668946,-10.4004 0,3.9258 q -1.157227,-0.6592 -2.226563,-0.9815 -1.054687,-0.3369 -2.036133,-0.3369 -2.34375,0 -3.574218,1.582 -1.215821,1.5674 -1.274415,4.6436 0.688477,-0.9522 1.757813,-1.4209 1.069336,-0.4834 2.519531,-0.4834 2.958985,0 4.570313,1.875 1.611328,1.8603 1.611328,5.2881 0,3.6767 -1.816406,5.6982 -1.801758,2.0215 -5.083008,2.0215 -3.999024,0 -5.81543,-2.6807 -1.801758,-2.6806 -1.801758,-8.6572 0,-5.6836 2.211914,-8.5107 2.211914,-2.8418 6.635743,-2.8418 1.02539,0 2.109375,0.2197 1.098632,0.2197 2.211914,0.6592 z"
           style="font-style:normal;font-variant:normal;font-weight:bold;font-stretch:normal;font-size:30px;font-family:monospace;-inkscape-font-specification:'monospace Bold';text-align:center;letter-spacing:0px;text-anchor:middle"
           id="path4148" />
      </g>
    </g>
  </g>
</svg>
