<?xml version="1.0" encoding="UTF-8" standalone="no"?>
<!-- Created with Inkscape (http://www.inkscape.org/) -->

<svg
   xmlns:dc="http://purl.org/dc/elements/1.1/"
   xmlns:cc="http://creativecommons.org/ns#"
   xmlns:rdf="http://www.w3.org/1999/02/22-rdf-syntax-ns#"
   xmlns:svg="http://www.w3.org/2000/svg"
   xmlns="http://www.w3.org/2000/svg"
   xmlns:sodipodi="http://sodipodi.sourceforge.net/DTD/sodipodi-0.dtd"
   xmlns:inkscape="http://www.inkscape.org/namespaces/inkscape"
   width="48"
   height="48"
   viewBox="0 0 48 48.000002"
   id="svg2"
   version="1.1"
   inkscape:version="0.92.3 (2405546, 2018-03-11)"
   sodipodi:docname="python-3.8-yellow.svg">
  <defs
     id="defs4" />
  <sodipodi:namedview
     id="base"
     pagecolor="#ffffff"
     bordercolor="#666666"
     borderopacity="1.0"
     inkscape:pageopacity="0.0"
     inkscape:pageshadow="2"
     inkscape:zoom="18.645833"
     inkscape:cx="16.518438"
     inkscape:cy="23.785475"
     inkscape:document-units="px"
     inkscape:current-layer="layer1"
     showgrid="false"
     units="px"
     inkscape:window-width="1920"
     inkscape:window-height="1125"
     inkscape:window-x="0"
     inkscape:window-y="24"
     inkscape:window-maximized="1" />
  <metadata
     id="metadata7">
    <rdf:RDF>
      <cc:Work
         rdf:about="">
        <dc:format>image/svg+xml</dc:format>
        <dc:type
           rdf:resource="http://purl.org/dc/dcmitype/StillImage" />
        <dc:title></dc:title>
      </cc:Work>
    </rdf:RDF>
  </metadata>
  <g
     inkscape:label="Layer 1"
     inkscape:groupmode="layer"
     id="layer1"
     transform="translate(0,-1004.3622)">
    <path
       inkscape:connector-curvature="0"
       style="fill:#ffff80;fill-opacity:1;stroke:none;stroke-width:5;stroke-miterlimit:4;stroke-dasharray:none"
       d="m 0,1004.3622 h 48.000004 v 48 H 0 Z"
       id="rect4136" />
    <g
       id="g883">
      <path
         d="m 21.634283,1033.9066 h 4.87793 v 5.376 h -4.87793 z"
         style="font-style:normal;font-variant:normal;font-weight:bold;font-stretch:normal;font-size:30px;line-height:1.25;font-family:monospace;-inkscape-font-specification:'monospace Bold';text-align:center;letter-spacing:0px;word-spacing:0px;text-anchor:middle;fill:#000000;fill-opacity:1;stroke:none;stroke-width:1px;stroke-linecap:butt;stroke-linejoin:miter;stroke-opacity:1"
         id="path874"
         inkscape:connector-curvature="0" />
      <path
         d="M 10.863404,1029.4974 H 8.5489511 v -3.8086 h 2.3144529 q 1.611328,0 2.490235,-0.6298 0.893554,-0.6446 0.893554,-1.8018 0,-1.2158 -0.893554,-1.8896 -0.878907,-0.6885 -2.490235,-0.6885 -1.2304685,0 -2.6367185,0.3076 -1.40625,0.3076 -2.915039,0.8935 v -3.9257 q 1.508789,-0.4541 2.9736328,-0.6885 1.4648437,-0.249 2.8124997,-0.249 3.457032,0 5.390625,1.5088 1.933594,1.5087 1.933594,4.1601 0,1.9483 -1.113281,3.1934 -1.113281,1.2304 -3.178711,1.6113 2.34375,0.4102 3.574219,1.875 1.230468,1.4502 1.230468,3.8232 0,3.1788 -2.036132,4.8487 -2.036133,1.6699 -5.917969,1.6699 -1.6552737,0 -3.2666018,-0.2783 -1.5966797,-0.2783 -3.0615234,-0.8057 v -4.0137 q 1.3769531,0.6885 2.9736328,1.0547 1.5966797,0.3516 3.3544924,0.3516 1.757812,0 2.783203,-0.8057 1.025391,-0.8203 1.025391,-2.1972 0,-1.6846 -1.025391,-2.5928 -1.025391,-0.9229 -2.900391,-0.9229 z"
         style="font-style:normal;font-variant:normal;font-weight:bold;font-stretch:normal;font-size:30px;line-height:1.25;font-family:monospace;-inkscape-font-specification:'monospace Bold';text-align:center;letter-spacing:0px;word-spacing:0px;text-anchor:middle;fill:#000000;fill-opacity:1;stroke:none;stroke-width:1px;stroke-linecap:butt;stroke-linejoin:miter;stroke-opacity:1"
         id="path871"
         inkscape:connector-curvature="0" />
      <path
         d="m 36.1991,1029.5267 q -1.450195,0 -2.34375,0.9229 -0.893554,0.9082 -0.893554,2.417 0,1.5088 0.893554,2.4316 0.893555,0.9229 2.34375,0.9229 1.450196,0 2.34375,-0.9375 0.908204,-0.9375 0.908204,-2.417 0,-1.5088 -0.893555,-2.417 -0.893555,-0.9229 -2.358399,-0.9229 z m -3.208007,-1.831 q -1.655274,-0.5713 -2.519532,-1.7871 -0.864257,-1.2305 -0.864257,-3.003 0,-2.7246 1.772461,-4.3066 1.77246,-1.582 4.819335,-1.582 3.061524,0 4.833985,1.582 1.772461,1.582 1.772461,4.3066 0,1.7579 -0.84961,2.9883 -0.849609,1.2158 -2.475586,1.8018 1.816407,0.5566 2.841797,1.9922 1.025391,1.4355 1.025391,3.4423 0,3.1495 -1.860352,4.8633 -1.860351,1.7139 -5.288086,1.7139 -3.413085,0 -5.273437,-1.7139 -1.860352,-1.7138 -1.860352,-4.8633 0,-2.0214 1.040039,-3.457 1.04004,-1.4355 2.885743,-1.9775 z m 0.454101,-4.4385 q 0,1.2891 0.732422,2.0508 0.74707,0.7471 2.021484,0.7471 1.289063,0 2.021485,-0.7471 0.74707,-0.7617 0.74707,-2.0508 0,-1.2744 -0.74707,-2.0068 -0.732422,-0.7471 -2.021485,-0.7471 -1.259765,0 -2.006835,0.7471 -0.747071,0.747 -0.747071,2.0068 z"
         style="font-style:normal;font-variant:normal;font-weight:bold;font-stretch:normal;font-size:30px;line-height:1.25;font-family:monospace;-inkscape-font-specification:'monospace Bold';text-align:center;letter-spacing:0px;word-spacing:0px;text-anchor:middle;fill:#000000;fill-opacity:1;stroke:none;stroke-width:1px;stroke-linecap:butt;stroke-linejoin:miter;stroke-opacity:1"
         id="path868"
         inkscape:connector-curvature="0" />
    </g>
  </g>
</svg>
