<?xml version="1.0" encoding="UTF-8" standalone="no"?>
<!-- Created with Inkscape (http://www.inkscape.org/) -->

<svg
   width="48"
   height="48"
   viewBox="0 0 48 48.000002"
   id="svg2"
   version="1.1"
   inkscape:version="1.1.2 (0a00cf5339, 2022-02-04)"
   sodipodi:docname="python-3.12-red.svg"
   inkscape:export-filename="/media/furas/SSD-4TB/home/furas/projekty/__grafika__/Python - Art/SVG/SVG-path/python-3.12-red.png"
   inkscape:export-xdpi="96"
   inkscape:export-ydpi="96"
   xmlns:inkscape="http://www.inkscape.org/namespaces/inkscape"
   xmlns:sodipodi="http://sodipodi.sourceforge.net/DTD/sodipodi-0.dtd"
   xmlns="http://www.w3.org/2000/svg"
   xmlns:svg="http://www.w3.org/2000/svg"
   xmlns:rdf="http://www.w3.org/1999/02/22-rdf-syntax-ns#"
   xmlns:cc="http://creativecommons.org/ns#"
   xmlns:dc="http://purl.org/dc/elements/1.1/">
  <defs
     id="defs4" />
  <sodipodi:namedview
     id="base"
     pagecolor="#ffffff"
     bordercolor="#666666"
     borderopacity="1.0"
     inkscape:pageopacity="0.0"
     inkscape:pageshadow="2"
     inkscape:zoom="4.4375018"
     inkscape:cx="-5.8591526"
     inkscape:cy="0"
     inkscape:document-units="px"
     inkscape:current-layer="layer1"
     showgrid="false"
     units="px"
     inkscape:window-width="1366"
     inkscape:window-height="679"
     inkscape:window-x="0"
     inkscape:window-y="32"
     inkscape:window-maximized="1"
     inkscape:pagecheckerboard="0" />
  <metadata
     id="metadata7">
    <rdf:RDF>
      <cc:Work
         rdf:about="">
        <dc:format>image/svg+xml</dc:format>
        <dc:type
           rdf:resource="http://purl.org/dc/dcmitype/StillImage" />
      </cc:Work>
    </rdf:RDF>
  </metadata>
  <g
     inkscape:label="Layer 1"
     inkscape:groupmode="layer"
     id="layer1"
     transform="translate(0,-1004.3622)">
    <path
       id="rect4136-7"
       d="M 48,1052.3622 H 0 v -48 h 48 z"
       style="fill:#ff8989;fill-opacity:1;stroke:none;stroke-width:5;stroke-miterlimit:4;stroke-dasharray:none"
       inkscape:connector-curvature="0" />
    <g
       id="g1090">
      <path
         d="m 16.350213,1032.0696 h 3.261693 v 3.5947 h -3.261693 z"
         style="font-size:8.02395px;-inkscape-font-specification:'monospace Bold';letter-spacing:-4.01198px;word-spacing:0px;stroke-width:0.999999px"
         id="path1051" />
      <path
         d="m 9.1481274,1029.1213 h -1.54759 v -2.5466 h 1.54759 q 1.0774356,0 1.6651286,-0.4212 0.597487,-0.431 0.597487,-1.2048 0,-0.813 -0.597487,-1.2635 -0.587693,-0.4604 -1.6651286,-0.4604 -0.8227693,0 -1.7630772,0.2057 -0.9403078,0.2057 -1.9491797,0.5975 v -2.625 q 1.0088719,-0.3037 1.9883592,-0.4604 0.9794873,-0.1665 1.8806157,-0.1665 2.3115896,0 3.6045136,1.0089 1.292923,1.0088 1.292923,2.7817 0,1.3027 -0.74441,2.1353 -0.744411,0.8228 -2.125488,1.0774 1.56718,0.2743 2.389949,1.2538 0.82277,0.9697 0.82277,2.5564 0,2.1255 -1.361488,3.2421 -1.361487,1.1167 -3.9571286,1.1167 -1.1068207,0 -2.1842567,-0.1861 -1.0676412,-0.1861 -2.0471285,-0.5388 v -2.6838 q 0.9207181,0.4604 1.9883592,0.7053 1.0676412,0.235 2.243026,0.235 1.1753846,0 1.8610256,-0.5387 0.685641,-0.5485 0.685641,-1.4692 0,-1.1264 -0.685641,-1.7337 -0.685641,-0.6171 -1.9393846,-0.6171 z"
         style="font-size:8.02395px;-inkscape-font-specification:'monospace Bold';letter-spacing:-4.01198px;word-spacing:0px;stroke-width:0.999999px"
         id="path1046" />
      <g
         id="g1069">
        <path
           d="m 21.892058,1033.1176 h 3.232308 v -9.4912 l -3.007026,0.7444 v -2.6054 l 3.026616,-0.7248 h 2.791539 v 12.077 h 3.232308 v 2.5467 h -9.275745 z"
           style="font-size:8.02395px;-inkscape-font-specification:'monospace Bold';letter-spacing:-4.01198px;word-spacing:0px;stroke-width:0.999999px"
           id="path1056" />
        <path
           d="m 36.378676,1033.1176 h 6.160975 v 2.5467 h -9.28554 v -2.4683 l 1.56718,-1.6651 q 2.791539,-2.9679 3.389026,-3.6535 0.734616,-0.8424 1.057847,-1.4888 0.32323,-0.6563 0.32323,-1.293 0,-0.9794 -0.597487,-1.5084 -0.587692,-0.5387 -1.674923,-0.5387 -0.773795,0 -1.743488,0.3134 -0.959897,0.3037 -2.007949,0.8914 v -2.6936 q 1.048052,-0.382 2.047129,-0.5779 1.008872,-0.2057 1.92959,-0.2057 2.321385,0 3.643693,1.0872 1.332102,1.0775 1.332102,2.9483 0,0.8619 -0.293846,1.6161 -0.284051,0.7542 -0.989282,1.675 -0.519128,0.666 -2.850308,2.9972 -1.263539,1.2635 -2.007949,2.0177 z"
           style="font-size:8.02395px;-inkscape-font-specification:'monospace Bold';letter-spacing:-4.01198px;word-spacing:0px;stroke-width:0.999999px"
           id="path1058" />
      </g>
    </g>
  </g>
</svg>
