<?xml version="1.0" encoding="UTF-8" standalone="no"?>
<!-- Created with Inkscape (http://www.inkscape.org/) -->

<svg
   width="48"
   height="48"
   viewBox="0 0 48 48.000002"
   id="svg2"
   version="1.1"
   inkscape:version="1.1.2 (0a00cf5339, 2022-02-04)"
   sodipodi:docname="python-colors-path.svg"
   xmlns:inkscape="http://www.inkscape.org/namespaces/inkscape"
   xmlns:sodipodi="http://sodipodi.sourceforge.net/DTD/sodipodi-0.dtd"
   xmlns="http://www.w3.org/2000/svg"
   xmlns:svg="http://www.w3.org/2000/svg"
   xmlns:rdf="http://www.w3.org/1999/02/22-rdf-syntax-ns#"
   xmlns:cc="http://creativecommons.org/ns#"
   xmlns:dc="http://purl.org/dc/elements/1.1/">
  <defs
     id="defs4" />
  <sodipodi:namedview
     id="base"
     pagecolor="#ffffff"
     bordercolor="#666666"
     borderopacity="1.0"
     inkscape:pageopacity="0.0"
     inkscape:pageshadow="2"
     inkscape:zoom="4.4374998"
     inkscape:cx="24.112677"
     inkscape:cy="24.112677"
     inkscape:document-units="px"
     inkscape:current-layer="layer1"
     showgrid="false"
     units="px"
     inkscape:window-width="1366"
     inkscape:window-height="679"
     inkscape:window-x="0"
     inkscape:window-y="32"
     inkscape:window-maximized="1"
     inkscape:pagecheckerboard="0" />
  <metadata
     id="metadata7">
    <rdf:RDF>
      <cc:Work
         rdf:about="">
        <dc:format>image/svg+xml</dc:format>
        <dc:type
           rdf:resource="http://purl.org/dc/dcmitype/StillImage" />
        <dc:title />
      </cc:Work>
    </rdf:RDF>
  </metadata>
  <g
     inkscape:label="Layer 1"
     inkscape:groupmode="layer"
     id="layer1"
     transform="translate(0,-1004.3622)">
    <g
       id="g897"
       transform="rotate(90,48.000003,1028.3622)">
      <path
         inkscape:connector-curvature="0"
         id="rect4136"
         d="m 48.000002,1004.3622 v 48 h -48 v -48 z"
         style="fill:#ffff80;fill-opacity:1;stroke:none;stroke-width:5;stroke-miterlimit:4;stroke-dasharray:none" />
      <path
         id="rect4136-3"
         d="m 96.000004,1004.3622 v 48 h -48 v -48 z"
         style="fill:#89ff89;fill-opacity:1;stroke:none;stroke-width:5;stroke-miterlimit:4;stroke-dasharray:none"
         inkscape:connector-curvature="0" />
      <path
         id="rect4136-7"
         d="m 48.000002,1052.3622 v 48 h -48 v -48 z"
         style="fill:#ff8989;fill-opacity:1;stroke:none;stroke-width:5;stroke-miterlimit:4;stroke-dasharray:none"
         inkscape:connector-curvature="0" />
      <path
         id="rect4136-6"
         d="m 96.000007,1052.3622 v 48 h -48 v -48 z"
         style="fill:#85ffff;fill-opacity:1;stroke:none;stroke-width:5;stroke-miterlimit:4;stroke-dasharray:none"
         inkscape:connector-curvature="0" />
    </g>
    <path
       d="m 21.502443,1033.9065 h 4.87793 v 5.376 h -4.87793 z"
       style="font-style:normal;font-variant:normal;font-weight:bold;font-stretch:normal;font-size:30px;line-height:125%;font-family:monospace;-inkscape-font-specification:'monospace Bold';text-align:center;letter-spacing:0px;word-spacing:0px;text-anchor:middle;fill:#000000;fill-opacity:1;stroke:none;stroke-width:1px;stroke-linecap:butt;stroke-linejoin:miter;stroke-opacity:1"
       id="path4143"
       inkscape:connector-curvature="0" />
    <path
       d="M 10.731566,1029.4973 H 8.4171128 v -3.8086 h 2.3144532 q 1.611328,0 2.490235,-0.6298 0.893554,-0.6446 0.893554,-1.8018 0,-1.2158 -0.893554,-1.8896 -0.878907,-0.6885 -2.490235,-0.6885 -1.2304693,0 -2.6367188,0.3076 -1.40625,0.3076 -2.9150391,0.8935 v -3.9257 q 1.5087891,-0.4541 2.9736328,-0.6885 1.4648438,-0.249 2.8125001,-0.249 3.457031,0 5.390625,1.5088 1.933594,1.5087 1.933594,4.1601 0,1.9483 -1.113281,3.1934 -1.113282,1.2304 -3.178711,1.6113 2.34375,0.4102 3.574219,1.875 1.230468,1.4502 1.230468,3.8232 0,3.1788 -2.036133,4.8487 -2.036132,1.6699 -5.917968,1.6699 -1.655274,0 -3.2666021,-0.2783 -1.5966797,-0.2783 -3.0615235,-0.8057 v -4.0137 q 1.3769532,0.6885 2.9736328,1.0547 1.5966797,0.3516 3.3544928,0.3516 1.757812,0 2.783203,-0.8057 1.02539,-0.8203 1.02539,-2.1972 0,-1.6846 -1.02539,-2.5928 -1.025391,-0.9229 -2.900391,-0.9229 z"
       style="font-style:normal;font-variant:normal;font-weight:bold;font-stretch:normal;font-size:30px;line-height:125%;font-family:monospace;-inkscape-font-specification:'monospace Bold';text-align:center;letter-spacing:0px;word-spacing:0px;text-anchor:middle;fill:#000000;fill-opacity:1;stroke:none;stroke-width:1px;stroke-linecap:butt;stroke-linejoin:miter;stroke-opacity:1"
       id="path4146"
       inkscape:connector-curvature="0" />
    <path
       inkscape:connector-curvature="0"
       id="path854"
       style="font-style:normal;font-variant:normal;font-weight:bold;font-stretch:normal;font-size:30px;line-height:1.25;font-family:monospace;-inkscape-font-specification:'monospace Bold';text-align:center;letter-spacing:0px;word-spacing:0px;text-anchor:middle;fill:#000000;fill-opacity:1;stroke:none;stroke-width:1px;stroke-linecap:butt;stroke-linejoin:miter;stroke-opacity:1"
       d="m 43.816284,1022.8762 -5.522461,7.8516 6.00586,8.5547 h -5.009766 l -3.222656,-5.5225 -3.208008,5.5225 h -5.009766 l 6.064453,-8.5547 -5.581054,-7.8516 h 5.009765 l 2.72461,4.8926 2.739258,-4.8926 z" />
  </g>
</svg>
