<?xml version="1.0" encoding="UTF-8" standalone="no"?>
<!-- Created with Inkscape (http://www.inkscape.org/) -->

<svg
   xmlns:dc="http://purl.org/dc/elements/1.1/"
   xmlns:cc="http://creativecommons.org/ns#"
   xmlns:rdf="http://www.w3.org/1999/02/22-rdf-syntax-ns#"
   xmlns:svg="http://www.w3.org/2000/svg"
   xmlns="http://www.w3.org/2000/svg"
   xmlns:sodipodi="http://sodipodi.sourceforge.net/DTD/sodipodi-0.dtd"
   xmlns:inkscape="http://www.inkscape.org/namespaces/inkscape"
   width="48"
   height="48"
   viewBox="0 0 48 48.000002"
   id="svg2"
   version="1.1"
   inkscape:version="0.92.3 (2405546, 2018-03-11)"
   sodipodi:docname="python-3.9-green.svg">
  <defs
     id="defs4" />
  <sodipodi:namedview
     id="base"
     pagecolor="#ffffff"
     bordercolor="#666666"
     borderopacity="1.0"
     inkscape:pageopacity="0.0"
     inkscape:pageshadow="2"
     inkscape:zoom="18.645833"
     inkscape:cx="9.0368736"
     inkscape:cy="23.57095"
     inkscape:document-units="px"
     inkscape:current-layer="layer1"
     showgrid="false"
     units="px"
     inkscape:window-width="1920"
     inkscape:window-height="1125"
     inkscape:window-x="0"
     inkscape:window-y="24"
     inkscape:window-maximized="1" />
  <metadata
     id="metadata7">
    <rdf:RDF>
      <cc:Work
         rdf:about="">
        <dc:format>image/svg+xml</dc:format>
        <dc:type
           rdf:resource="http://purl.org/dc/dcmitype/StillImage" />
        <dc:title></dc:title>
      </cc:Work>
    </rdf:RDF>
  </metadata>
  <g
     inkscape:label="Layer 1"
     inkscape:groupmode="layer"
     id="layer1"
     transform="translate(0,-1004.3622)">
    <path
       inkscape:connector-curvature="0"
       style="fill:#89ff89;fill-opacity:1;stroke:none;stroke-width:5;stroke-miterlimit:4;stroke-dasharray:none"
       d="m 0,1004.3622 h 48 v 48 H 0 Z"
       id="rect4136-6" />
    <g
       id="g955">
      <path
         d="m 21.648932,1033.8334 h 4.877929 v 5.376 h -4.877929 z"
         style="font-style:normal;font-variant:normal;font-weight:bold;font-stretch:normal;font-size:30px;line-height:1.25;font-family:monospace;-inkscape-font-specification:'monospace Bold';text-align:center;letter-spacing:0px;word-spacing:0px;text-anchor:middle;fill:#000000;fill-opacity:1;stroke:none;stroke-width:1px;stroke-linecap:butt;stroke-linejoin:miter;stroke-opacity:1"
         id="path946"
         inkscape:connector-curvature="0" />
      <path
         d="M 10.878053,1029.4242 H 8.5635996 v -3.8086 h 2.3144534 q 1.611328,0 2.490234,-0.6299 0.893555,-0.6445 0.893555,-1.8017 0,-1.2159 -0.893555,-1.8897 -0.878906,-0.6885 -2.490234,-0.6885 -1.230469,0 -2.636719,0.3077 -1.40625,0.3076 -2.9150391,0.8935 v -3.9258 q 1.5087891,-0.4541 2.9736328,-0.6885 1.4648438,-0.249 2.8125003,-0.249 3.457031,0 5.390625,1.5088 1.933593,1.5088 1.933593,4.1602 0,1.9482 -1.113281,3.1933 -1.113281,1.2305 -3.178711,1.6114 2.34375,0.4101 3.574219,1.875 1.230469,1.4502 1.230469,3.8232 0,3.1787 -2.036133,4.8486 -2.036133,1.67 -5.917969,1.67 -1.6552732,0 -3.2666014,-0.2784 -1.5966796,-0.2783 -3.0615234,-0.8056 v -4.0137 q 1.3769531,0.6885 2.9736328,1.0547 1.5966797,0.3515 3.354492,0.3515 1.757813,0 2.783203,-0.8056 1.025391,-0.8203 1.025391,-2.1973 0,-1.6846 -1.025391,-2.5928 -1.02539,-0.9228 -2.90039,-0.9228 z"
         style="font-style:normal;font-variant:normal;font-weight:bold;font-stretch:normal;font-size:30px;line-height:1.25;font-family:monospace;-inkscape-font-specification:'monospace Bold';text-align:center;letter-spacing:0px;word-spacing:0px;text-anchor:middle;fill:#000000;fill-opacity:1;stroke:none;stroke-width:1px;stroke-linecap:butt;stroke-linejoin:miter;stroke-opacity:1"
         id="path943"
         inkscape:connector-curvature="0" />
      <path
         d="m 30.163944,1038.9164 v -3.9404 q 1.157227,0.6738 2.211914,0.996 1.069336,0.3223 2.050782,0.3223 2.329101,0 3.544921,-1.5527 1.230469,-1.5674 1.303711,-4.6729 -0.688476,0.9522 -1.757812,1.4356 -1.069336,0.4687 -2.53418,0.4687 -2.944336,0 -4.555664,-1.8603 -1.611328,-1.875 -1.611328,-5.3028 0,-3.6621 1.801758,-5.6689 1.801758,-2.0068 5.097656,-2.0068 3.999023,0 5.800781,2.6806 1.816407,2.666 1.816407,8.6279 0,5.669 -2.211915,8.5108 -2.211914,2.8271 -6.635742,2.8271 -1.02539,0 -2.124023,-0.2197 -1.083985,-0.2197 -2.197266,-0.6445 z m 5.668946,-10.5615 q 1.391601,0 2.124023,-1.0108 0.74707,-1.0254 0.74707,-2.959 0,-1.9189 -0.74707,-2.9297 -0.732422,-1.0253 -2.124023,-1.0253 -1.40625,0 -2.167969,1.0253 -0.747071,1.0108 -0.747071,2.9297 0,1.919 0.747071,2.9444 0.761719,1.0254 2.167969,1.0254 z"
         style="font-style:normal;font-variant:normal;font-weight:bold;font-stretch:normal;font-size:30px;line-height:1.25;font-family:monospace;-inkscape-font-specification:'monospace Bold';text-align:center;letter-spacing:0px;word-spacing:0px;text-anchor:middle;fill:#000000;fill-opacity:1;stroke:none;stroke-width:1px;stroke-linecap:butt;stroke-linejoin:miter;stroke-opacity:1"
         id="path940"
         inkscape:connector-curvature="0" />
    </g>
  </g>
</svg>
