<?xml version="1.0" encoding="UTF-8" standalone="no"?>
<!-- Created with Inkscape (http://www.inkscape.org/) -->

<svg
   xmlns:dc="http://purl.org/dc/elements/1.1/"
   xmlns:cc="http://creativecommons.org/ns#"
   xmlns:rdf="http://www.w3.org/1999/02/22-rdf-syntax-ns#"
   xmlns:svg="http://www.w3.org/2000/svg"
   xmlns="http://www.w3.org/2000/svg"
   xmlns:sodipodi="http://sodipodi.sourceforge.net/DTD/sodipodi-0.dtd"
   xmlns:inkscape="http://www.inkscape.org/namespaces/inkscape"
   width="48"
   height="48"
   viewBox="0 0 48 48.000002"
   id="svg2"
   version="1.1"
   inkscape:version="0.92.3 (2405546, 2018-03-11)"
   sodipodi:docname="python-3.5-cyan.svg">
  <defs
     id="defs4" />
  <sodipodi:namedview
     id="base"
     pagecolor="#ffffff"
     bordercolor="#666666"
     borderopacity="1.0"
     inkscape:pageopacity="0.0"
     inkscape:pageshadow="2"
     inkscape:zoom="18.645833"
     inkscape:cx="24.000002"
     inkscape:cy="24"
     inkscape:document-units="px"
     inkscape:current-layer="layer1"
     showgrid="false"
     units="px"
     inkscape:window-width="1920"
     inkscape:window-height="1125"
     inkscape:window-x="0"
     inkscape:window-y="24"
     inkscape:window-maximized="1" />
  <metadata
     id="metadata7">
    <rdf:RDF>
      <cc:Work
         rdf:about="">
        <dc:format>image/svg+xml</dc:format>
        <dc:type
           rdf:resource="http://purl.org/dc/dcmitype/StillImage" />
        <dc:title></dc:title>
      </cc:Work>
    </rdf:RDF>
  </metadata>
  <g
     inkscape:label="Layer 1"
     inkscape:groupmode="layer"
     id="layer1"
     transform="translate(0,-1004.3622)">
    <path
       style="fill:#85ffff;fill-opacity:1;stroke:none;stroke-width:5;stroke-miterlimit:4;stroke-dasharray:none"
       d="m 0,1004.3622 48.000004,0 0,48 -48.000004,0 z"
       id="rect4136" />
    <g
       id="g4178"
       transform="translate(-0.7727113,-6.5e-5)">
      <g
         style="font-style:normal;font-weight:normal;font-size:40px;line-height:125%;font-family:sans-serif;letter-spacing:-6px;word-spacing:0px;fill:#000000;fill-opacity:1;stroke:none;stroke-width:1px;stroke-linecap:butt;stroke-linejoin:miter;stroke-opacity:1"
         id="text4138">
        <path
           inkscape:connector-curvature="0"
           d="m 22.275154,1033.9066 h 4.87793 v 5.376 h -4.87793 z"
           style="font-style:normal;font-variant:normal;font-weight:bold;font-stretch:normal;font-size:30px;font-family:monospace;-inkscape-font-specification:'monospace Bold';text-align:center;letter-spacing:0px;text-anchor:middle"
           id="path4143" />
      </g>
      <g
         style="font-style:normal;font-weight:normal;font-size:40px;line-height:125%;font-family:sans-serif;letter-spacing:-6px;word-spacing:0px;fill:#000000;fill-opacity:1;stroke:none;stroke-width:1px;stroke-linecap:butt;stroke-linejoin:miter;stroke-opacity:1"
         id="text4170">
        <path
           inkscape:connector-curvature="0"
           d="M 11.504277,1029.4974 H 9.1898241 v -3.8086 h 2.3144529 q 1.611328,0 2.490235,-0.6298 0.893554,-0.6446 0.893554,-1.8018 0,-1.2158 -0.893554,-1.8896 -0.878907,-0.6885 -2.490235,-0.6885 -1.230469,0 -2.6367185,0.3076 -1.40625,0.3076 -2.9150391,0.8935 v -3.9257 q 1.5087891,-0.4541 2.9736328,-0.6885 1.4648438,-0.249 2.8124998,-0.249 3.457031,0 5.390625,1.5088 1.933594,1.5087 1.933594,4.1601 0,1.9483 -1.113281,3.1934 -1.113282,1.2304 -3.178711,1.6113 2.34375,0.4102 3.574219,1.875 1.230468,1.4502 1.230468,3.8232 0,3.1788 -2.036133,4.8487 -2.036132,1.6699 -5.917968,1.6699 -1.6552737,0 -3.2666018,-0.2783 -1.5966797,-0.2783 -3.0615235,-0.8057 v -4.0137 q 1.3769532,0.6885 2.9736328,1.0547 1.5966797,0.3516 3.3544925,0.3516 1.757812,0 2.783203,-0.8057 1.02539,-0.8203 1.02539,-2.1972 0,-1.6846 -1.02539,-2.5928 -1.025391,-0.9229 -2.900391,-0.9229 z"
           style="font-style:normal;font-variant:normal;font-weight:bold;font-stretch:normal;font-size:30px;font-family:monospace;-inkscape-font-specification:'monospace Bold';text-align:center;letter-spacing:0px;text-anchor:middle"
           id="path4146" />
      </g>
      <g
         style="font-style:normal;font-weight:normal;font-size:40px;line-height:125%;font-family:sans-serif;letter-spacing:-6px;word-spacing:0px;fill:#000000;fill-opacity:1;stroke:none;stroke-width:1px;stroke-linecap:butt;stroke-linejoin:miter;stroke-opacity:1"
         id="text4174">
        <path
           inkscape:connector-curvature="0"
           d="m 30.643684,1017.4125 h 11.879883 v 3.8086 h -8.378906 v 4.0576 q 0.527344,-0.2051 1.12793,-0.293 0.600586,-0.1025 1.274414,-0.1025 3.251953,0 5.273437,2.0508 2.021485,2.0507 2.021485,5.332 0,3.4424 -2.197266,5.4492 -2.182617,1.9922 -5.961914,1.9922 -1.40625,0 -2.841797,-0.2344 -1.435547,-0.2344 -2.929687,-0.7031 v -3.8965 q 1.21582,0.6006 2.490234,0.9082 1.289062,0.293 2.578125,0.293 2.285156,0 3.47168,-0.9668 1.186523,-0.9815 1.186523,-2.8418 0,-1.7139 -1.186523,-2.7393 -1.171875,-1.04 -3.134766,-1.04 -1.157227,0 -2.329102,0.293 -1.157226,0.2783 -2.34375,0.8496 z"
           style="font-style:normal;font-variant:normal;font-weight:bold;font-stretch:normal;font-size:30px;font-family:monospace;-inkscape-font-specification:'monospace Bold';text-align:center;letter-spacing:0px;text-anchor:middle"
           id="path4149" />
      </g>
    </g>
  </g>
</svg>
