<?xml version="1.0" encoding="UTF-8" standalone="no"?>
<!-- Created with Inkscape (http://www.inkscape.org/) -->

<svg
   xmlns:dc="http://purl.org/dc/elements/1.1/"
   xmlns:cc="http://creativecommons.org/ns#"
   xmlns:rdf="http://www.w3.org/1999/02/22-rdf-syntax-ns#"
   xmlns:svg="http://www.w3.org/2000/svg"
   xmlns="http://www.w3.org/2000/svg"
   xmlns:xlink="http://www.w3.org/1999/xlink"
   xmlns:sodipodi="http://sodipodi.sourceforge.net/DTD/sodipodi-0.dtd"
   xmlns:inkscape="http://www.inkscape.org/namespaces/inkscape"
   width="48px"
   height="48px"
   id="svg18157"
   version="1.1"
   inkscape:version="0.92.3 (2405546, 2018-03-11)"
   sodipodi:docname="Orange-folder-python.svg">
  <defs
     id="defs18159">
    <linearGradient
       inkscape:collect="always"
       xlink:href="#linearGradient3454-2-5-0-3"
       id="linearGradient12489"
       gradientUnits="userSpaceOnUse"
       gradientTransform="matrix(0.89189031,0,0,1.0580283,3.1206609,5.3536023)"
       x1="42.470848"
       y1="11.952797"
       x2="42.470848"
       y2="35.581654" />
    <linearGradient
       id="linearGradient3454-2-5-0-3">
      <stop
         offset="0"
         style="stop-color:#ffffff;stop-opacity:1"
         id="stop3456-4-9-38-1" />
      <stop
         offset="0.0097359"
         style="stop-color:#ffffff;stop-opacity:0.23529412"
         id="stop3458-39-80-3-5" />
      <stop
         offset="0.99001008"
         style="stop-color:#ffffff;stop-opacity:0.15686275"
         id="stop3460-7-0-2-4" />
      <stop
         offset="1"
         style="stop-color:#ffffff;stop-opacity:0.39215687"
         id="stop3462-0-9-8-7" />
    </linearGradient>
    <linearGradient
       inkscape:collect="always"
       xlink:href="#linearGradient6129-963-697-142-998-580-273-44-2-2"
       id="linearGradient12487"
       gradientUnits="userSpaceOnUse"
       gradientTransform="matrix(1.1446925,0,0,0.9977536,-3.4661379,1.0988397)"
       x1="22.934725"
       y1="49.629246"
       x2="22.809399"
       y2="36.657963" />
    <linearGradient
       id="linearGradient6129-963-697-142-998-580-273-44-2-2">
      <stop
         id="stop2661-01-6-2"
         style="stop-color:#0a0a0a;stop-opacity:0.498"
         offset="0" />
      <stop
         id="stop2663-64-5-5"
         style="stop-color:#0a0a0a;stop-opacity:0"
         offset="1" />
    </linearGradient>
    <linearGradient
       inkscape:collect="always"
       xlink:href="#linearGradient4632-0-6-4"
       id="linearGradient12481"
       gradientUnits="userSpaceOnUse"
       gradientTransform="matrix(1,0,0,1.0357143,2.0849371e-6,-1.5890903)"
       x1="35.792694"
       y1="17.118193"
       x2="35.792694"
       y2="43.761127" />
    <linearGradient
       id="linearGradient4632-0-6-4">
      <stop
         style="stop-color:#eab982;stop-opacity:1;"
         offset="0"
         id="stop4634-4-4-7" />
      <stop
         style="stop-color:#b05001;stop-opacity:1;"
         offset="1"
         id="stop4636-3-1-5" />
    </linearGradient>
    <radialGradient
       inkscape:collect="always"
       xlink:href="#linearGradient5060-820-91-9-0"
       id="radialGradient12475"
       gradientUnits="userSpaceOnUse"
       gradientTransform="matrix(-0.03079083,0,0,0.02470588,23.389752,31.94164)"
       cx="605.71429"
       cy="486.64789"
       fx="605.71429"
       fy="486.64789"
       r="117.14286" />
    <linearGradient
       id="linearGradient5060-820-91-9-0">
      <stop
         id="stop2681-778-5-1"
         style="stop-color:#000000;stop-opacity:1"
         offset="0" />
      <stop
         id="stop2683-2-86-2"
         style="stop-color:#000000;stop-opacity:0"
         offset="1" />
    </linearGradient>
    <radialGradient
       inkscape:collect="always"
       xlink:href="#linearGradient5060-179-37-4-0"
       id="radialGradient12471"
       gradientUnits="userSpaceOnUse"
       gradientTransform="matrix(0.03079083,0,0,0.02470588,24.610252,31.94164)"
       cx="605.71429"
       cy="486.64789"
       fx="605.71429"
       fy="486.64789"
       r="117.14286" />
    <linearGradient
       id="linearGradient5060-179-37-4-0">
      <stop
         id="stop2675-91-9-2"
         style="stop-color:#000000;stop-opacity:1"
         offset="0" />
      <stop
         id="stop2677-09-0-9"
         style="stop-color:#000000;stop-opacity:0"
         offset="1" />
    </linearGradient>
    <linearGradient
       inkscape:collect="always"
       xlink:href="#linearGradient5048-585-73-1-5"
       id="linearGradient12467"
       gradientUnits="userSpaceOnUse"
       gradientTransform="matrix(0.07938856,0,0,0.02470588,-4.6932879,31.94164)"
       x1="302.85715"
       y1="366.64789"
       x2="302.85715"
       y2="609.50507" />
    <linearGradient
       id="linearGradient5048-585-73-1-5">
      <stop
         id="stop2667-99-4-6"
         style="stop-color:#000000;stop-opacity:0"
         offset="0" />
      <stop
         id="stop2669-5-9-4"
         style="stop-color:#000000;stop-opacity:1"
         offset="0.5" />
      <stop
         id="stop2671-56-4-2"
         style="stop-color:#000000;stop-opacity:0"
         offset="1" />
    </linearGradient>
    <linearGradient
       inkscape:collect="always"
       xlink:href="#linearGradient4507-0-4-7"
       id="linearGradient12463"
       gradientUnits="userSpaceOnUse"
       gradientTransform="matrix(0.89189031,0,0,1.0580283,3.1206621,5.3535997)"
       x1="21.37039"
       y1="4.2476678"
       x2="21.37039"
       y2="34.143417" />
    <linearGradient
       id="linearGradient4507-0-4-7">
      <stop
         id="stop4509-35-6-1"
         style="stop-color:#ffffff;stop-opacity:1"
         offset="0" />
      <stop
         id="stop4511-46-3-8"
         style="stop-color:#ffffff;stop-opacity:0.23529412"
         offset="0.07395859" />
      <stop
         id="stop4513-15-5-9"
         style="stop-color:#ffffff;stop-opacity:0.15686275"
         offset="0.99001008" />
      <stop
         id="stop4515-1-1-8"
         style="stop-color:#ffffff;stop-opacity:0.39215687"
         offset="1" />
    </linearGradient>
    <linearGradient
       inkscape:collect="always"
       xlink:href="#linearGradient4646-7-4-3"
       id="linearGradient12459"
       gradientUnits="userSpaceOnUse"
       gradientTransform="translate(-50.940897,-3.1315613e-7)"
       x1="62.988873"
       y1="13"
       x2="62.988873"
       y2="16" />
    <linearGradient
       id="linearGradient4646-7-4-3">
      <stop
         offset="0"
         style="stop-color:#f9f9f9;stop-opacity:1"
         id="stop4648-8-0-3" />
      <stop
         offset="1"
         style="stop-color:#d8d8d8;stop-opacity:1"
         id="stop4650-1-7-3" />
    </linearGradient>
    <linearGradient
       id="linearGradient3104-8-8-97-4-6-11-5-5">
      <stop
         offset="0"
         style="stop-color:#000000;stop-opacity:0.32173914"
         id="stop3106-5-4-3-5-0-2-1-0" />
      <stop
         offset="1"
         style="stop-color:#000000;stop-opacity:0.27826086"
         id="stop3108-4-3-7-8-2-0-7-9" />
    </linearGradient>
    <linearGradient
       y2="3.6336823"
       x2="-51.786404"
       y1="53.514328"
       x1="-51.786404"
       gradientTransform="matrix(0.80749834,0,0,0.83374395,106.87672,-0.06984031)"
       gradientUnits="userSpaceOnUse"
       id="linearGradient18155"
       xlink:href="#linearGradient3104-8-8-97-4-6-11-5-5"
       inkscape:collect="always" />
    <linearGradient
       gradientUnits="userSpaceOnUse"
       y2="44.376751"
       x2="22.559322"
       y1="16.466301"
       x1="22.559322"
       id="linearGradient3840"
       xlink:href="#linearGradient7012-661-145-733-759-865-745"
       inkscape:collect="always" />
    <radialGradient
       r="21"
       fy="5.01718"
       fx="3"
       cy="5.01718"
       cx="3"
       gradientTransform="matrix(-1.274898e-8,1.7142916,-2.159331,-1.4599595e-8,12.809361,2.8570011)"
       gradientUnits="userSpaceOnUse"
       id="radialGradient3070"
       xlink:href="#linearGradient3484"
       inkscape:collect="always" />
    <linearGradient
       y2="16.19013"
       x2="62.988873"
       y1="13.182598"
       x1="62.988873"
       gradientTransform="translate(-50.940898,0)"
       gradientUnits="userSpaceOnUse"
       id="linearGradient3068"
       xlink:href="#linearGradient6404"
       inkscape:collect="always" />
    <linearGradient
       y2="15.943953"
       x2="65.340263"
       y1="45.114193"
       x1="82.453476"
       gradientTransform="translate(-53.765393,-0.1141929)"
       gradientUnits="userSpaceOnUse"
       id="linearGradient3061"
       xlink:href="#linearGradient3390"
       inkscape:collect="always" />
    <linearGradient
       y2="36.657963"
       x2="22.809399"
       y1="49.629246"
       x1="22.934725"
       gradientTransform="matrix(1.1446925,0,0,0.9977536,-3.4661413,1.0988425)"
       gradientUnits="userSpaceOnUse"
       id="linearGradient3056"
       xlink:href="#linearGradient6129-963-697-142-998-580-273"
       inkscape:collect="always" />
    <radialGradient
       r="20.979567"
       fy="8.3021259"
       fx="7.2646537"
       cy="8.3021259"
       cx="7.2646537"
       gradientTransform="matrix(0,1.2079744,-1.6271642,0,26.371748,8.2664685)"
       gradientUnits="userSpaceOnUse"
       id="radialGradient3053"
       xlink:href="#linearGradient6087-437-184-795-110-662-495"
       inkscape:collect="always" />
    <linearGradient
       y2="33.95525"
       x2="15.214532"
       y1="22.292103"
       x1="11.566265"
       gradientUnits="userSpaceOnUse"
       id="linearGradient3050"
       xlink:href="#linearGradient8265-821-176-38-919-66-249"
       inkscape:collect="always" />
    <linearGradient
       gradientUnits="userSpaceOnUse"
       xlink:href="#linearGradient8265-821-176-38-919-66-249"
       id="linearGradient3466"
       y2="33.95525"
       x2="15.214532"
       y1="22.292103"
       x1="11.566265" />
    <linearGradient
       id="linearGradient8265-821-176-38-919-66-249">
      <stop
         offset="0"
         style="stop-color:#ffffff;stop-opacity:0.2"
         id="stop2687" />
      <stop
         offset="1"
         style="stop-color:#ffffff;stop-opacity:0"
         id="stop2689" />
    </linearGradient>
    <radialGradient
       gradientTransform="matrix(0,1.2079744,-1.6271642,0,26.371748,8.2664685)"
       gradientUnits="userSpaceOnUse"
       xlink:href="#linearGradient6087-437-184-795-110-662-495"
       id="radialGradient2442-940-759"
       fy="8.3021259"
       fx="7.2646537"
       r="20.979567"
       cy="8.3021259"
       cx="7.2646537" />
    <linearGradient
       id="linearGradient6087-437-184-795-110-662-495">
      <stop
         offset="0"
         style="stop-color:#ffffff;stop-opacity:0.40000001"
         id="stop2693" />
      <stop
         offset="1"
         style="stop-color:#ffffff;stop-opacity:0"
         id="stop2695" />
    </linearGradient>
    <linearGradient
       gradientTransform="matrix(1.1446925,0,0,0.9977536,-3.4661413,1.0988425)"
       gradientUnits="userSpaceOnUse"
       xlink:href="#linearGradient6129-963-697-142-998-580-273"
       id="linearGradient6462-657-405"
       y2="36.657963"
       x2="22.809399"
       y1="49.629246"
       x1="22.934725" />
    <linearGradient
       id="linearGradient6129-963-697-142-998-580-273">
      <stop
         offset="0"
         style="stop-color:#0a0a0a;stop-opacity:0.498"
         id="stop2661" />
      <stop
         offset="1"
         style="stop-color:#0a0a0a;stop-opacity:0"
         id="stop2663" />
    </linearGradient>
    <radialGradient
       gradientTransform="matrix(1.5646925,-9.5143002e-8,6.1772287e-8,1.015888,-86.212573,8.1461173)"
       gradientUnits="userSpaceOnUse"
       xlink:href="#linearGradient7012-661-145-733-759-865-745"
       id="radialGradient3404"
       fy="14.113381"
       fx="63.969177"
       r="23.097054"
       cy="14.113381"
       cx="63.969177" />
    <linearGradient
       id="linearGradient7012-661-145-733-759-865-745">
      <stop
         offset="0"
         style="stop-color:#aacb7d;stop-opacity:1"
         id="stop2699" />
      <stop
         offset="1"
         style="stop-color:#709937;stop-opacity:1"
         id="stop2701" />
    </linearGradient>
    <linearGradient
       gradientTransform="translate(-53.765393,-0.1141929)"
       gradientUnits="userSpaceOnUse"
       xlink:href="#linearGradient3390"
       id="linearGradient3412"
       y2="15.943953"
       x2="65.340263"
       y1="45.114193"
       x1="82.453476" />
    <linearGradient
       id="linearGradient3390">
      <stop
         offset="0"
         style="stop-color:#51751e;stop-opacity:1"
         id="stop3392" />
      <stop
         offset="1"
         style="stop-color:#51751e;stop-opacity:1"
         id="stop3394" />
    </linearGradient>
    <linearGradient
       gradientTransform="matrix(0.08284024,0,0,0.03705882,-5.9408285,25.412461)"
       gradientUnits="userSpaceOnUse"
       xlink:href="#linearGradient5048-585"
       id="linearGradient7596-975"
       y2="609.50507"
       x2="302.85715"
       y1="366.64789"
       x1="302.85715" />
    <linearGradient
       id="linearGradient5048-585">
      <stop
         offset="0"
         style="stop-color:#000000;stop-opacity:0"
         id="stop2667" />
      <stop
         offset="0.5"
         style="stop-color:#000000;stop-opacity:1"
         id="stop2669" />
      <stop
         offset="1"
         style="stop-color:#000000;stop-opacity:0"
         id="stop2671" />
    </linearGradient>
    <radialGradient
       gradientTransform="matrix(0.03212956,0,0,0.03705882,24.636785,25.412461)"
       gradientUnits="userSpaceOnUse"
       xlink:href="#linearGradient5060-179"
       id="radialGradient7598-526"
       fy="486.64789"
       fx="605.71429"
       r="117.14286"
       cy="486.64789"
       cx="605.71429" />
    <linearGradient
       id="linearGradient5060-179">
      <stop
         offset="0"
         style="stop-color:#000000;stop-opacity:1"
         id="stop2675" />
      <stop
         offset="1"
         style="stop-color:#000000;stop-opacity:0"
         id="stop2677" />
    </linearGradient>
    <radialGradient
       gradientTransform="matrix(-0.03212956,0,0,0.03705882,23.363215,25.412461)"
       gradientUnits="userSpaceOnUse"
       xlink:href="#linearGradient5060-820"
       id="radialGradient7600-312"
       fy="486.64789"
       fx="605.71429"
       r="117.14286"
       cy="486.64789"
       cx="605.71429" />
    <linearGradient
       id="linearGradient5060-820">
      <stop
         offset="0"
         style="stop-color:#000000;stop-opacity:1"
         id="stop2681" />
      <stop
         offset="1"
         style="stop-color:#000000;stop-opacity:0"
         id="stop2683" />
    </linearGradient>
    <linearGradient
       gradientTransform="translate(-50.940898,0)"
       gradientUnits="userSpaceOnUse"
       xlink:href="#linearGradient6404"
       id="linearGradient3482"
       y2="16.19013"
       x2="62.988873"
       y1="13.182598"
       x1="62.988873" />
    <linearGradient
       id="linearGradient6404">
      <stop
         offset="0"
         style="stop-color:#f9f9f9;stop-opacity:1"
         id="stop6406" />
      <stop
         offset="1"
         style="stop-color:#c9c9c9;stop-opacity:1"
         id="stop6408" />
    </linearGradient>
    <radialGradient
       gradientTransform="matrix(-1.274898e-8,1.7142916,-2.159331,-1.4599595e-8,12.809361,2.8570011)"
       gradientUnits="userSpaceOnUse"
       xlink:href="#linearGradient3484"
       id="radialGradient3470"
       fy="5.01718"
       fx="3"
       r="21"
       cy="5.01718"
       cx="3" />
    <linearGradient
       id="linearGradient3484">
      <stop
         offset="0"
         style="stop-color:#bdbdbd;stop-opacity:1"
         id="stop3486" />
      <stop
         offset="1"
         style="stop-color:#d0d0d0;stop-opacity:1"
         id="stop3488" />
    </linearGradient>
    <linearGradient
       gradientTransform="matrix(0.2014014,0,0,0.2014015,18.110304,20.311705)"
       gradientUnits="userSpaceOnUse"
       xlink:href="#linearGradient5128"
       id="linearGradient2606"
       y2="20.895"
       x2="84.63858"
       y1="105.105"
       x1="86.132919" />
    <linearGradient
       id="linearGradient5128">
      <stop
         offset="0"
         style="stop-color:#ffffff;stop-opacity:1"
         id="stop5130" />
      <stop
         offset="1"
         style="stop-color:#959595;stop-opacity:1"
         id="stop5132" />
    </linearGradient>
    <linearGradient
       gradientUnits="userSpaceOnUse"
       xlink:href="#linearGradient3309"
       id="linearGradient3413"
       y2="47.012184"
       x2="32.036148"
       y1="19"
       x1="32.036148" />
    <linearGradient
       gradientUnits="userSpaceOnUse"
       id="linearGradient3309"
       y2="122.8994"
       x2="63.9995"
       y1="3.1001"
       x1="63.9995">
      <stop
         offset="0"
         style="stop-color:#f6f6f6;stop-opacity:1"
         id="stop3311" />
      <stop
         offset="1"
         style="stop-color:#d2d2d2;stop-opacity:1"
         id="stop3313" />
    </linearGradient>
    <linearGradient
       gradientUnits="userSpaceOnUse"
       xlink:href="#linearGradient3397"
       id="linearGradient3415"
       y2="47.044857"
       x2="25.922546"
       y1="19"
       x1="25.922546" />
    <linearGradient
       id="linearGradient3397">
      <stop
         offset="0"
         style="stop-color:#a0a0a0;stop-opacity:1"
         id="stop3399" />
      <stop
         offset="1"
         style="stop-color:#787878;stop-opacity:1"
         id="stop3401" />
    </linearGradient>
    <linearGradient
       x1="114.99662"
       y1="165.98375"
       x2="135.83893"
       y2="120.67539"
       id="linearGradient8399"
       xlink:href="#linearGradient4076"
       gradientUnits="userSpaceOnUse"
       gradientTransform="matrix(0.89888509,0,0,0.85526551,-1.7453304,-11.731341)" />
    <linearGradient
       id="linearGradient4076">
      <stop
         id="stop4078"
         style="stop-color:#ffe45d;stop-opacity:1"
         offset="0" />
      <stop
         id="stop4080"
         style="stop-color:#ffb01c;stop-opacity:1"
         offset="1" />
    </linearGradient>
    <linearGradient
       gradientTransform="matrix(2.2162728,0,0,2.1381851,-5.1804204,-16.259906)"
       x1="48.800121"
       y1="43.643417"
       x2="54.379364"
       y2="57.859699"
       id="linearGradient8429"
       xlink:href="#linearGradient8362"
       gradientUnits="userSpaceOnUse" />
    <linearGradient
       id="linearGradient8362">
      <stop
         id="stop8364"
         style="stop-color:#ffffff;stop-opacity:1"
         offset="0" />
      <stop
         id="stop8366"
         style="stop-color:#ffffff;stop-opacity:0"
         offset="1" />
    </linearGradient>
    <linearGradient
       gradientTransform="matrix(2.2162728,0,0,2.1381851,-5.1804204,-16.259906)"
       x1="62.684563"
       y1="65.534477"
       x2="51.501648"
       y2="46.1651"
       id="linearGradient8409"
       xlink:href="#linearGradient8403"
       gradientUnits="userSpaceOnUse" />
    <linearGradient
       id="linearGradient8403">
      <stop
         id="stop8405"
         style="stop-color:#aa6f00;stop-opacity:1"
         offset="0" />
      <stop
         id="stop8407"
         style="stop-color:#d99800;stop-opacity:1"
         offset="1" />
    </linearGradient>
    <linearGradient
       x1="116.53692"
       y1="58.201862"
       x2="77.087646"
       y2="118.20246"
       id="linearGradient8345"
       xlink:href="#linearGradient4092"
       gradientUnits="userSpaceOnUse"
       gradientTransform="matrix(0.89888509,0,0,0.85526551,-3.5526224,-14.721505)" />
    <linearGradient
       id="linearGradient4092">
      <stop
         id="stop4094"
         style="stop-color:#2b5d87;stop-opacity:1"
         offset="0" />
      <stop
         id="stop4096"
         style="stop-color:#4182b8;stop-opacity:1"
         offset="1" />
    </linearGradient>
    <linearGradient
       gradientTransform="matrix(2.2162728,0,0,2.1381851,-5.1804204,-16.259906)"
       x1="36.129795"
       y1="26.97562"
       x2="46.904793"
       y2="43.868523"
       id="linearGradient8368"
       xlink:href="#linearGradient8362"
       gradientUnits="userSpaceOnUse" />
    <linearGradient
       gradientTransform="matrix(2.2162728,0,0,2.1381851,-5.1804204,-16.259906)"
       x1="49.395386"
       y1="49.177551"
       x2="31.857361"
       y2="24.6332"
       id="linearGradient8390"
       xlink:href="#linearGradient8384"
       gradientUnits="userSpaceOnUse" />
    <linearGradient
       id="linearGradient8384">
      <stop
         id="stop8386"
         style="stop-color:#1e3b55;stop-opacity:1"
         offset="0" />
      <stop
         id="stop8388"
         style="stop-color:#2e5c84;stop-opacity:1"
         offset="1" />
    </linearGradient>
  </defs>
  <sodipodi:namedview
     id="base"
     pagecolor="#ffffff"
     bordercolor="#666666"
     borderopacity="1.0"
     inkscape:pageopacity="0.0"
     inkscape:pageshadow="2"
     inkscape:zoom="7"
     inkscape:cx="-24.642857"
     inkscape:cy="24"
     inkscape:current-layer="layer1"
     showgrid="true"
     inkscape:grid-bbox="true"
     inkscape:document-units="px"
     inkscape:window-width="857"
     inkscape:window-height="469"
     inkscape:window-x="114"
     inkscape:window-y="278"
     inkscape:window-maximized="0" />
  <metadata
     id="metadata18162">
    <rdf:RDF>
      <cc:Work
         rdf:about="">
        <dc:format>image/svg+xml</dc:format>
        <dc:type
           rdf:resource="http://purl.org/dc/dcmitype/StillImage" />
        <dc:title></dc:title>
      </cc:Work>
    </rdf:RDF>
  </metadata>
  <g
     id="layer1"
     inkscape:label="Layer 1"
     inkscape:groupmode="layer">
    <path
       inkscape:connector-curvature="0"
       style="opacity:0.8;color:#000000;fill:none;stroke:url(#linearGradient18155);stroke-width:1;stroke-linecap:butt;stroke-linejoin:miter;stroke-miterlimit:4;stroke-opacity:1;stroke-dasharray:none;stroke-dashoffset:0;marker:none;visibility:visible;display:inline;overflow:visible;enable-background:accumulate"
       d="m 5.5000021,8.4999997 c -0.554,0 -1,0.446 -1,1 l 0,2.0000003 -1,0 c -0.554,0 -1,0.446 -1,1 l 0,6 c 0,0.554 0.446,1 1,1 l 40.9999999,0 c 0.554,0 1,-0.446 1,-1 l 0,-6 c 0,-0.554 -0.446,-1 -1,-1 l -23,0 0,-2.0000003 c 0,-0.554 -0.446,-1 -1,-1 l -14.9999999,0 z"
       id="rect4251-0-0-61" />
    <path
       style="color:#000000;fill:url(#linearGradient12459);fill-opacity:1;fill-rule:nonzero;stroke:none;stroke-width:0.99992168;marker:none;visibility:visible;display:inline;overflow:visible;enable-background:accumulate"
       d="m 5.5000021,8.9999997 c -0.277,0 -0.5,0.223 -0.5,0.5 l 0,2.5000003 -1.5,0 c -0.277,0 -0.5,0.223 -0.5,0.5 l 0,6 c 0,0.277 0.223,0.5 0.5,0.5 l 40.9999999,0 c 0.277,0 0.5,-0.223 0.5,-0.5 l 0,-6 c 0,-0.277 -0.223,-0.5 -0.5,-0.5 l -23.5,0 0,-2.5000003 c 0,-0.277 -0.223,-0.5 -0.5,-0.5 l -14.9999999,0 z"
       id="rect4251-3-2"
       inkscape:connector-curvature="0" />
    <path
       style="color:#000000;fill:none;stroke:url(#linearGradient12463);stroke-width:1;stroke-linecap:round;stroke-linejoin:round;stroke-miterlimit:4;stroke-opacity:1;stroke-dasharray:none;stroke-dashoffset:0;marker:none;visibility:visible;display:inline;overflow:visible;enable-background:accumulate"
       d="m 5.5000021,9.4999997 0,3.0000003 -2,0 0,7 40.9999999,0 0,-7 -24,0 0,-3.0000003 -14.9999999,0 z"
       id="rect4251-9-21-7"
       inkscape:connector-curvature="0" />
    <rect
       style="opacity:0.3;fill:url(#linearGradient12467);fill-opacity:1;fill-rule:nonzero;stroke:none;stroke-width:1;marker:none;visibility:visible;display:inline;overflow:visible"
       id="rect4173-8-8"
       y="41"
       x="4.8333426"
       height="6.0000005"
       width="38.333332" />
    <path
       style="opacity:0.3;fill:url(#radialGradient12471);fill-opacity:1;fill-rule:nonzero;stroke:none;stroke-width:1;marker:none;visibility:visible;display:inline;overflow:visible"
       id="path5058-9-0"
       inkscape:connector-curvature="0"
       d="m 43.166672,41.00021 c 0,0 0,5.99967 0,5.99967 1.58565,0.0113 3.83333,-1.34422 3.83333,-3.00022 0,-1.656 -1.76947,-2.99945 -3.83333,-2.99945 z" />
    <path
       style="opacity:0.3;fill:url(#radialGradient12475);fill-opacity:1;fill-rule:nonzero;stroke:none;stroke-width:1;marker:none;visibility:visible;display:inline;overflow:visible"
       id="path5018-6-6"
       inkscape:connector-curvature="0"
       d="m 4.8333321,41.00021 c 0,0 0,5.99967 0,5.99967 -1.58565,0.0113 -3.83333,-1.34422 -3.83333,-3.00022 0,-1.656 1.76947,-2.99945 3.83333,-2.99945 z" />
    <path
       style="fill:url(#linearGradient12481);fill-opacity:1;stroke:none"
       id="path3388-7-1"
       inkscape:connector-curvature="0"
       d="m 2.1626121,15.50019 c -1.07231,0.12829 -0.49959,1.45416 -0.58508,2.19974 0.12444,0.48182 0.92748,26.17643 0.92748,26.17643 0,0.7414 0.35172,0.61579 1.24292,0.61579 13.1885599,0 27.7725299,0 40.9610899,0 0.96008,0.0231 0.75718,0.0121 0.75718,-0.62748 0,0 0.99298,-27.35421 1.0285,-27.7811 0,-0.44949 0.0902,-0.58338 -0.47316,-0.58338 -14.08405,0 -29.77488,0 -43.8589299,0 z"
       sodipodi:nodetypes="ccsscccsc" />
    <path
       style="opacity:0.4;fill:url(#linearGradient12487);fill-opacity:1;stroke:none"
       id="path6127-1-4"
       inkscape:connector-curvature="0"
       d="m 2.0582421,16.06515 43.8964799,4e-4 c 0.63416,0 1.04515,0.44461 1.04515,0.99737 l -1.03241,26.96037 c 0.0147,0.6994 -0.20909,0.97671 -0.9459,0.96204 L 3.2408421,44.96773 c -0.63416,0 -1.27363,-0.41277 -1.27363,-0.96552 L 1.0130921,17.0629 c 0,-0.55276 0.41099,-0.99775 1.04515,-0.99775 z" />
    <path
       sodipodi:type="inkscape:offset"
       inkscape:radius="-1.0151105"
       inkscape:original="M 2.15625 16.5 C 1.0839484 16.623862 1.6479947 17.905133 1.5625 18.625 C 1.6869357 19.090206 2.5 43.90625 2.5 43.90625 C 2.5 44.622082 2.8587963 44.5 3.75 44.5 L 44.71875 44.5 C 45.67883 44.52232 45.46875 44.492483 45.46875 43.875 C 45.46875 43.875 46.464479 17.474672 46.5 17.0625 C 46.5 16.628509 46.594572 16.5 46.03125 16.5 L 2.15625 16.5 z "
       style="opacity:0.5;color:#000000;fill:none;stroke:url(#linearGradient12489);stroke-width:0.98133707;stroke-linecap:round;stroke-linejoin:miter;stroke-miterlimit:4;stroke-opacity:1;stroke-dasharray:none;stroke-dashoffset:0;marker:none;visibility:visible;display:inline;overflow:visible;enable-background:accumulate"
       id="path4587-3-5"
       d="m 2.5,17.5 c 0.016793,0.176427 0.022163,0.517935 0.03125,0.875 0.023112,0.08641 0.025524,0.05923 0.03125,0.09375 0.011058,0.06665 0.027034,0.138257 0.03125,0.1875 0.0064,0.07474 -0.00668,0.173042 0,0.28125 0.013352,0.216416 0.045306,0.510844 0.0625,0.875 0.034388,0.728313 0.078083,1.708883 0.125,2.90625 0.093834,2.394734 0.2030642,5.55569 0.3125,8.6875 C 3.3060459,37.481691 3.4883163,43.143759 3.5,43.5 c 0.1225025,0.0036 0.071108,0 0.25,0 l 40.71875,0 c 0.0124,-0.328836 0.253182,-6.426721 0.5,-12.90625 0.126691,-3.325928 0.245386,-6.68527 0.34375,-9.21875 0.04918,-1.26674 0.09434,-2.331501 0.125,-3.09375 0.01322,-0.328618 0.02246,-0.572975 0.03125,-0.78125 L 2.5,17.5 z"
       transform="matrix(1,0,0,1.0383977,0.02211208,-1.6719603)" />
    <path
       style="opacity:0.3;fill:none;stroke:#000000;stroke-width:1;stroke-linecap:round;stroke-linejoin:round;stroke-miterlimit:4;stroke-opacity:1;stroke-dashoffset:0"
       id="path3388-7-1-7"
       inkscape:connector-curvature="0"
       d="m 2.1626121,15.50019 c -1.07231,0.12829 -0.49959,1.45416 -0.58508,2.19974 0.12444,0.48182 0.92748,26.17643 0.92748,26.17643 0,0.7414 0.35172,0.61579 1.24292,0.61579 13.1885599,0 27.7725299,0 40.9610899,0 0.96008,0.0231 0.75718,0.0121 0.75718,-0.62748 0,0 0.99298,-27.35421 1.0285,-27.7811 0,-0.44949 0.0902,-0.58338 -0.47316,-0.58338 -14.08405,0 -29.77488,0 -43.8589299,0 z"
       sodipodi:nodetypes="ccsscccsc" />
    <g
       transform="matrix(0.45120797,0,0,0.46768634,2.3374472,7.6045363)"
       style="display:inline;stroke-width:2.17687893"
       id="layer4">
      <path
         inkscape:connector-curvature="0"
         d="m 47.8125,22.96875 c -2.070832,-0.02603 -4.221656,0.25164 -6.53125,0.90625 -1.581632,0.447306 -3.37913,1.146714 -4.96875,2.34375 -1.660418,1.250349 -3.09375,3.272231 -3.09375,5.84375 v 2.21875 H 31.125 c -2.40328,0 -4.449322,1.081878 -5.75,2.71875 -1.222988,1.539103 -1.834946,3.320021 -2.40625,5 -1.339147,3.924628 -1.238358,7.882854 -0.0625,12.5 0.450986,1.7745 1.132353,3.605656 2.46875,5.09375 1.386452,1.54383 3.430629,2.46875 5.75,2.46875 h 4.84375 0.8125 c 0.0027,-1.6e-5 0.09102,1.49e-4 0.09375,0 0.0027,-1.49e-4 0.122285,-0.03097 0.125,-0.03125 0.0027,-2.82e-4 0.09105,4.14e-4 0.09375,0 0.0027,-4.14e-4 0.09107,5.45e-4 0.09375,0 0.0027,-5.45e-4 0.0911,-0.03058 0.09375,-0.03125 0.0026,-6.74e-4 0.09114,-0.03045 0.09375,-0.03125 0.0026,-8.02e-4 0.09118,-0.03032 0.09375,-0.03125 0.0026,-9.28e-4 0.09123,-0.0302 0.09375,-0.03125 0.0025,-0.0011 0.09128,-0.03008 0.09375,-0.03125 0.0025,-0.0012 0.09134,-0.06121 0.09375,-0.0625 0.0024,-0.0013 0.06016,-0.02984 0.0625,-0.03125 0.0023,-0.0014 0.09148,-0.06098 0.09375,-0.0625 0.0023,-0.0015 0.09156,-0.06087 0.09375,-0.0625 0.0022,-0.0016 0.06039,-0.06077 0.0625,-0.0625 0.0021,-0.0017 0.06048,-0.06067 0.0625,-0.0625 0.002,-0.0018 0.09182,-0.06057 0.09375,-0.0625 0.0019,-0.0019 0.06067,-0.09173 0.0625,-0.09375 0.0018,-0.002 0.06077,-0.06039 0.0625,-0.0625 0.0017,-0.0021 0.06087,-0.06031 0.0625,-0.0625 0.0016,-0.0022 0.06098,-0.09148 0.0625,-0.09375 0.0015,-0.0023 0.06109,-0.09141 0.0625,-0.09375 0.0014,-0.0023 0.02996,-0.06009 0.03125,-0.0625 0.0013,-0.0024 0.06133,-0.09128 0.0625,-0.09375 0.0012,-0.0025 0.0302,-0.09123 0.03125,-0.09375 0.0011,-0.0025 0.03032,-0.09118 0.03125,-0.09375 9.28e-4,-0.0026 0.03045,-0.09114 0.03125,-0.09375 8.02e-4,-0.0026 0.03058,-0.0911 0.03125,-0.09375 6.74e-4,-0.0026 0.0307,-0.09107 0.03125,-0.09375 5.45e-4,-0.0027 -4.14e-4,-0.09105 0,-0.09375 4.14e-4,-0.0027 -2.82e-4,-0.09103 0,-0.09375 2.82e-4,-0.0027 0.0311,-0.122274 0.03125,-0.125 1.49e-4,-0.0027 -1.6e-5,-0.09102 0,-0.09375 v -0.8125 -4.28125 c 0,-0.763419 0.519094,-1.820808 1.4375,-2.65625 0.432727,-0.393637 0.992701,-0.741082 1.5,-0.96875 C 42.257299,51.084832 42.757253,51 42.84375,51 h 10.1875 c 4.788528,0 8.3125,-4.273733 8.3125,-8.75 V 32.0625 c 0,-2.316345 -1.093702,-4.265586 -2.59375,-5.59375 -1.448085,-1.282156 -3.208579,-2.097026 -4.9375,-2.59375 -1.931755,-0.55483 -3.930348,-0.880237 -6,-0.90625 z"
         id="path8475"
         style="opacity:0.05;fill:#2c5f89;fill-opacity:1;stroke:none;stroke-width:2.17687893" />
      <path
         inkscape:connector-curvature="0"
         d="m 47.8125,23.90625 c -1.978568,-0.02487 -4.050983,0.242874 -6.28125,0.875 -1.513884,0.428146 -3.198549,1.089803 -4.65625,2.1875 -1.485789,1.118848 -2.71875,2.866248 -2.71875,5.09375 v 3.15625 H 31.125 c -2.124923,0 -3.900275,0.951695 -5.03125,2.375 -1.096089,1.379403 -1.680658,3.04454 -2.25,4.71875 -1.273375,3.731872 -1.179781,7.458906 -0.03125,11.96875 0.433453,1.705512 1.063488,3.366305 2.25,4.6875 1.206864,1.343856 2.986321,2.15625 5.0625,2.15625 h 4.84375 0.8125 A 1.1003999,1.1003999 0 0 0 37.875,60.03125 v -0.8125 -4.28125 c 0,-1.138241 0.686453,-2.376278 1.75,-3.34375 1.049515,-0.954707 2.527431,-1.53125 3.21875,-1.53125 h 10.1875 c 4.225582,0 7.375,-3.827413 7.375,-7.8125 V 32.0625 c 0,-2.02472 -0.95004,-3.727578 -2.28125,-4.90625 -1.31142,-1.16115 -2.928042,-1.905415 -4.5625,-2.375 -1.862672,-0.534988 -3.7718,-0.850136 -5.75,-0.875 z"
         id="path8471"
         style="opacity:0.15;fill:#2c5f89;fill-opacity:1;stroke:none;stroke-width:2.17687893" />
      <path
         d="m 47.8125,25 c -1.866466,-0.02346 -3.828684,0.23719 -5.96875,0.84375 -1.435165,0.405883 -3.020526,1.027101 -4.3125,2 C 36.239276,28.816649 35.25,30.231266 35.25,32.0625 v 4.25 h -4.125 c -1.810499,0 -3.208529,0.776065 -4.15625,1.96875 -0.947721,1.192685 -1.532597,2.72487 -2.09375,4.375 -1.197461,3.50939 -1.117628,6.95525 0,11.34375 0.411825,1.62041 0.993993,3.09855 2,4.21875 1.006007,1.1202 2.457053,1.8125 4.25,1.8125 h 4.84375 0.8125 v -0.8125 -4.28125 c 0,-1.54638 0.860417,-3.03433 2.09375,-4.15625 1.233333,-1.12192 2.831864,-1.8125 3.96875,-1.8125 h 10.1875 c 3.535091,0 6.28125,-3.32769 6.28125,-6.71875 V 32.0625 c 0,-1.691553 -0.768301,-3.086194 -1.90625,-4.09375 C 56.268301,26.961194 54.777772,26.282684 53.25,25.84375 51.462141,25.330249 49.678966,25.02346 47.8125,25 Z"
         inkscape:connector-curvature="0"
         id="path8454"
         style="opacity:0.3;fill:#2c5f89;fill-opacity:1;stroke:none;stroke-width:2.17687893" />
      <path
         inkscape:connector-curvature="0"
         d="m 58.9375,35.90625 a 1.2187565,1.2187565 0 0 0 -0.09375,0.03125 c 0.01045,-0.002 -0.19773,0.03419 -0.1875,0.03125 0.01023,-0.0029 -0.197437,0.06631 -0.1875,0.0625 0.0099,-0.0038 -0.165819,0.06716 -0.15625,0.0625 0.0096,-0.0047 -0.165379,0.09922 -0.15625,0.09375 0.0091,-0.0055 -0.164871,0.09999 -0.15625,0.09375 0.0086,-0.0062 -0.133047,0.131967 -0.125,0.125 0.008,-0.007 -0.132413,0.132638 -0.125,0.125 0.0074,-0.0076 -0.131724,0.133252 -0.125,0.125 0.0067,-0.0083 -0.130983,0.133803 -0.125,0.125 0.006,-0.0088 -0.09895,0.165539 -0.09375,0.15625 0.0052,-0.0093 -0.06687,0.197204 -0.0625,0.1875 0.0044,-0.0097 -0.06602,0.166297 -0.0625,0.15625 0.0035,-0.01005 -0.06513,0.166564 -0.0625,0.15625 0.0026,-0.01031 -0.03298,0.198003 -0.03125,0.1875 0.0017,-0.0105 -0.03206,0.198113 -0.03125,0.1875 8.11e-4,-0.01061 1.11e-4,0.166893 0,0.15625 v 0.8125 3.65625 c 0,0.83471 -0.551755,2.081571 -1.46875,3 -0.917527,0.918961 -2.165361,1.46875 -2.96875,1.46875 l -9.75,0.0625 c -2.087464,0 -4.156568,0.68803 -5.75,2.125 -1.626784,1.46705 -2.59375,3.660558 -2.59375,6.125 V 65.9375 c 0,2.324299 1.085835,4.289866 2.59375,5.625 1.454603,1.287931 3.207288,2.065411 4.9375,2.5625 3.866533,1.110537 7.93575,1.342622 12.5625,0.03125 1.572499,-0.444722 3.364704,-1.135849 4.96875,-2.34375 1.669287,-1.25703 3.125,-3.287743 3.125,-5.875 V 63.75 h 2.0625 c 2.413678,0 4.478038,-1.109929 5.78125,-2.75 1.216857,-1.531394 1.86026,-3.271302 2.4375,-4.96875 1.343624,-3.937735 1.207319,-7.94451 0.03125,-12.5625 -0.451574,-1.776821 -1.129071,-3.570749 -2.46875,-5.0625 -1.389656,-1.547402 -3.446047,-2.5 -5.78125,-2.5 h -4.84375 -0.6875 c 0.0064,5.92e-4 -0.06879,0.0026 -0.125,0 -0.04216,-0.002 -0.09858,0 -0.09375,0 0.01128,0 -0.198734,10e-4 -0.1875,0 z"
         id="path8452"
         style="opacity:0.05;fill:#b07400;fill-opacity:1;stroke:none;stroke-width:2.17687893" />
      <path
         inkscape:connector-curvature="0"
         d="m 59.0625,37.125 a 0.85063183,0.85063183 0 0 0 -0.6875,0.84375 v 0.8125 3.65625 c 0,1.276802 -0.694791,2.755544 -1.8125,3.875 -1.11812,1.119868 -2.591133,1.8125 -3.84375,1.8125 l -9.75,0.0625 c -1.820642,0 -3.590703,0.597948 -4.9375,1.8125 -1.358755,1.225339 -2.1875,3.067248 -2.1875,5.21875 V 65.9375 c 0,1.949095 0.900158,3.578915 2.1875,4.71875 1.272044,1.12629 2.858496,1.849875 4.46875,2.3125 3.693092,1.060722 7.454183,1.253004 11.875,0 1.496011,-0.42309 3.173665,-1.055628 4.59375,-2.125 1.441796,-1.085722 2.625,-2.768695 2.625,-4.90625 V 62.53125 H 64.875 c 2.053553,0 3.72312,-0.910283 4.8125,-2.28125 1.062409,-1.337024 1.68252,-2.956253 2.25,-4.625 1.256149,-3.681374 1.141515,-7.36144 0,-11.84375 C 71.508957,42.095049 70.895539,40.494324 69.75,39.21875 68.588726,37.925655 66.88689,37.125 64.875,37.125 h -4.84375 -0.8125 a 0.85063183,0.85063183 0 0 0 -0.15625,0 z"
         id="path8448"
         style="opacity:0.15;fill:#b07400;fill-opacity:1;stroke:none;stroke-width:2.17687893" />
      <path
         d="m 59.21875,37.96875 v 0.8125 3.65625 c 0,1.569933 -0.811589,3.215884 -2.0625,4.46875 -1.250911,1.252866 -2.888505,2.0625 -4.4375,2.0625 l -9.75,0.0625 c -1.634787,0 -3.201893,0.535833 -4.375,1.59375 -1.173107,1.05792 -1.90625,2.65688 -1.90625,4.59375 V 65.9375 c 0,1.69155 0.768301,3.08619 1.90625,4.09375 1.137949,1.00756 2.628469,1.68607 4.15625,2.125 3.575718,1.02701 7.126116,1.21313 11.40625,0 1.435159,-0.40588 3.020527,-1.0271 4.3125,-2 C 59.760723,69.18335 60.75,67.76873 60.75,65.9375 v -4.25 h 4.125 c 1.810498,0 3.20853,-0.77606 4.15625,-1.96875 0.94772,-1.19269 1.532601,-2.72487 2.09375,-4.375 1.197465,-3.50939 1.117627,-6.95524 0,-11.34375 -0.411823,-1.620414 -0.993993,-3.098547 -2,-4.21875 -1.006007,-1.120203 -2.457054,-1.8125 -4.25,-1.8125 h -4.84375 z"
         inkscape:connector-curvature="0"
         id="path8431"
         style="opacity:0.3;fill:#b07400;fill-opacity:1;stroke:none;stroke-width:2.17687893" />
      <g
         transform="translate(91.301337,59.321993)"
         id="layer6-2"
         style="stroke-width:2.17687893" />
      <g
         transform="translate(91.301337,59.321993)"
         id="layer1-3"
         style="display:inline;stroke-width:2.17687893" />
      <path
         d="m 59.394351,64.937319 c 0,3.087968 -2.717419,4.651953 -5.475389,5.431942 -4.14912,1.175996 -7.478965,0.995993 -10.94671,0 -2.89588,-0.831984 -5.475388,-2.531971 -5.475388,-5.431942 V 54.749421 c 0,-2.93197 2.478111,-5.435946 5.475388,-5.435946 l 10.77163,-0.69068 c 3.646194,0 6.029213,-2.244617 6.029213,-5.928582 l 0.992132,-4.924621 h 4.104513 c 3.187888,0 4.688549,2.335975 5.475378,5.431944 1.095075,4.299956 1.14375,7.515926 0,10.867892 -1.107237,3.255967 -2.291548,5.431945 -5.475378,5.431945 H 59.394351 48.44763 v -0.02136 h 10.946721 v 5.457318 z"
         inkscape:connector-curvature="0"
         id="path2732"
         style="fill:url(#linearGradient8399);fill-opacity:1;stroke:none;stroke-width:2.17687893" />
      <path
         d="m 69.21875,48.46875 c -0.04547,1.362708 -0.297872,2.643708 -0.75,3.96875 -0.528288,1.553496 -1.047647,2.691056 -1.5625,3.28125 -0.514853,0.590194 -0.888653,0.8125 -2.03125,0.8125 H 59.40625 A 1.9674614,1.9674614 0 0 0 57.4375,58.5 v 0.8125 a 1.9674614,1.9674614 0 0 1 1.96875,-1.78125 H 64.875 c 1.142597,0 1.516397,-0.222306 2.03125,-0.8125 0.514853,-0.590194 1.034212,-1.727754 1.5625,-3.28125 0.560206,-1.641785 0.814675,-3.214773 0.75,-4.96875 z m -29.75,15.46875 v 1 c 0,0.868196 0.311065,1.419297 1,2.03125 0.688935,0.611953 1.777593,1.139825 3.03125,1.5 3.20792,0.921367 6.041492,1.086541 9.875,0 1.210764,-0.342419 2.328413,-0.839976 3.03125,-1.4375 0.702837,-0.597524 1.03125,-1.132058 1.03125,-2.09375 v -1 c 0,0.961692 -0.328413,1.496226 -1.03125,2.09375 -0.702837,0.597524 -1.820486,1.095081 -3.03125,1.4375 -3.833508,1.086541 -6.66708,0.921367 -9.875,0 -1.253657,-0.360175 -2.342315,-0.888047 -3.03125,-1.5 -0.688935,-0.611953 -1,-1.163054 -1,-2.03125 z"
         inkscape:connector-curvature="0"
         id="path8413"
         style="opacity:0.4;fill:#ffffff;fill-opacity:1;stroke:none;stroke-width:2.17687893" />
      <path
         d="m 52.00209,66.124377 c 0,-1.12399 0.920683,-2.03598 2.052262,-2.03598 1.135637,0 2.052251,0.91199 2.052251,2.03598 0,1.127988 -0.916614,2.039978 -2.052251,2.039978 -1.131579,0 -2.052262,-0.91199 -2.052262,-2.039978 z"
         inkscape:connector-curvature="0"
         id="path8401"
         style="fill:#ac7100;fill-opacity:1;stroke-width:2.17687893" />
      <path
         d="m 52.00209,65.124377 c 0,-1.12399 0.920683,-2.03598 2.052262,-2.03598 1.135637,0 2.052251,0.91199 2.052251,2.03598 0,1.127988 -0.916614,2.039978 -2.052251,2.039978 -1.131579,0 -2.052262,-0.91199 -2.052262,-2.039978 z"
         inkscape:connector-curvature="0"
         id="path2736"
         style="fill:#ffffff;stroke-width:2.17687893" />
      <path
         d="m 60.75,37.78125 -0.96875,4.90625 c 0,3.683965 -2.385056,5.9375 -6.03125,5.9375 L 42.96875,49.3125 C 39.971473,49.3125 37.5,51.81803 37.5,54.75 v 6.90625 c 0.740078,-2.894468 2.658806,-7.761596 7.34375,-8.1875 5.643711,-0.513065 12.489186,1.65128 16.875,-1.9375 3.756903,-3.074161 4.14558,-7.400403 2.6875,-13.71875 v -0.03125 z"
         inkscape:connector-curvature="0"
         id="path8418"
         style="opacity:0.6;fill:url(#linearGradient8429);fill-opacity:1;stroke:none;stroke-width:2.17687893" />
      <path
         d="m 59.943111,64.937321 c 0,3.087968 -3.266178,4.651952 -6.024147,5.431941 -4.149121,1.175997 -7.478966,0.995994 -10.94671,0 -2.895881,-0.831983 -5.475389,-2.53197 -5.475389,-5.431941 V 54.208218 c 0,-3.474035 2.556505,-5.358632 5.475389,-5.358632 l 9.735773,-0.05756 c 3.646194,0 7.336561,-3.680098 7.336561,-7.364062 V 37.76959 h 4.825154 c 3.187887,0 4.688548,2.335976 5.475378,5.431944 1.095075,4.299957 1.14375,7.515927 0,10.867892 -1.107236,3.255968 -2.291548,5.818519 -5.475378,5.818519 H 59.943111 48.447632 v -0.02136 l 11.495479,0.03866 v 5.032086 z"
         inkscape:connector-curvature="0"
         id="path2744"
         style="fill:none;stroke:url(#linearGradient8409);stroke-width:3.5471406;stroke-opacity:1" />
      <path
         d="m 36.681387,30.935187 c 0,-3.08797 0.839561,-4.767953 5.475389,-5.567947 3.147337,-0.543994 7.182889,-0.611991 10.946721,0 2.972922,0.483996 5.475377,2.667976 5.475377,5.567947 v 10.187897 c 0,2.98797 -2.429447,5.435945 -5.475377,5.435945 l -9.927587,0.541204 c -3.715144,0 -7.551811,3.201285 -7.551811,6.733249 l -0.313588,4.26943 h -3.76382 c -3.183831,0 -5.03735,-2.263976 -5.816073,-5.431944 -1.050461,-4.255957 -1.005848,-6.791931 0,-10.867891 0.872008,-3.555966 3.65837,-5.431946 6.842199,-5.431946 h 4.10857 10.950778 v -0.03618 H 36.681387 Z"
         inkscape:connector-curvature="0"
         id="path2730"
         style="fill:url(#linearGradient8345);fill-opacity:1;stroke:none;stroke-width:2.17687893" />
      <path
         d="m 38.71875,33.3125 v 1 H 47.625 a 2.041095,2.041095 0 0 1 1.96875,1.5 2.041095,2.041095 0 0 0 0.0625,-0.4375 V 35.34375 A 2.041095,2.041095 0 0 0 47.625,33.3125 Z M 56.5625,40.125 c 0,1.870491 -1.517007,3.40625 -3.46875,3.40625 a 2.041095,2.041095 0 0 0 -0.09375,0 l -9.8125,0.53125 h -0.09375 v 0.03125 c -2.409143,0.0272 -4.690414,0.973687 -6.4375,2.5 -1.732022,1.513153 -2.974475,3.656782 -3.03125,6.09375 h -0.03125 v 0.15625 l -0.1875,2.21875 h -1.875 c -1.106979,0 -1.764898,-0.323848 -2.375,-0.9375 -0.610102,-0.613652 -1.141846,-1.638854 -1.46875,-2.96875 -0.443934,-1.798606 -0.673265,-3.160438 -0.71875,-4.46875 -0.06602,1.630861 0.1618,3.212258 0.71875,5.46875 0.326904,1.329896 0.858648,2.355098 1.46875,2.96875 0.610102,0.613652 1.268021,0.9375 2.375,0.9375 h 1.875 l 0.1875,-2.21875 V 53.6875 H 33.625 c 0.05678,-2.436968 1.299228,-4.580597 3.03125,-6.09375 1.747086,-1.526313 4.028357,-2.472799 6.4375,-2.5 V 45.0625 H 43.1875 L 53,44.53125 a 2.041095,2.041095 0 0 1 0.09375,0 c 1.951743,0 3.46875,-1.535759 3.46875,-3.40625 z"
         inkscape:connector-curvature="0"
         id="path8349"
         style="opacity:0.2;fill:#ffffff;fill-opacity:1;stroke:none;stroke-width:2.17687893" />
      <path
         d="m 47.40625,24.9375 c -1.872784,0.0085 -3.676332,0.165503 -5.25,0.4375 -4.635828,0.799994 -5.46875,2.47453 -5.46875,5.5625 v 5.40625 H 47.625 V 36.375 h -10.9375 -4.125 c -3.183829,0 -5.971742,1.881534 -6.84375,5.4375 -0.790699,3.204119 -0.962319,5.459302 -0.5,8.34375 0.651523,-2.558758 1.215858,-10.580271 8,-11.03125 C 39.966999,38.676407 45.018226,39.972053 50,39 55.103281,38.149453 56.954207,28.336384 53.1875,25.90625 l -0.75,-0.625 C 50.762477,25.045559 49.060964,24.92999 47.40625,24.9375 Z"
         inkscape:connector-curvature="0"
         id="path8356"
         style="opacity:0.6;fill:url(#linearGradient8368);fill-opacity:1;stroke:none;stroke-width:2.17687893" />
      <path
         d="m 58.59375,39.125 c 0,2.98797 -2.45407,5.4375 -5.5,5.4375 l -9.90625,0.53125 c -3.715144,0 -7.5625,3.218036 -7.5625,6.75 l -0.3125,4.25 h -3.78125 c -3.183831,0 -5.033777,-2.269532 -5.8125,-5.4375 C 25.324827,49.060266 25.092991,47.721651 25,46.4375 c -0.09055,1.918683 0.117983,3.784733 0.71875,6.21875 0.778723,3.167968 2.628669,5.4375 5.8125,5.4375 h 3.78125 l 0.3125,-4.25 c 0,-3.531964 3.847356,-6.75 7.5625,-6.75 l 9.90625,-0.53125 c 3.04593,0 5.5,-2.44953 5.5,-5.4375 z"
         inkscape:connector-curvature="0"
         id="path8370"
         style="opacity:0.2;fill:#000000;fill-opacity:1;stroke:none;stroke-width:2.17687893" />
      <path
         d="m 36.056883,31.062678 c 0,-3.087969 3.266178,-4.651953 6.024159,-5.431945 4.14912,-1.175988 7.478965,-0.995991 10.94671,0 2.895869,0.831992 5.475388,2.531973 5.475388,5.431945 v 10.187897 c 0,2.931972 -2.478122,5.899837 -5.475388,5.899837 h -10.19917 c -2.863332,0 -6.873164,3.107968 -6.873164,6.791932 v 4.288062 h -4.825154 c -3.187889,0 -4.68855,-2.335976 -5.475385,-5.431945 -1.095076,-4.299956 -1.143746,-7.515926 0,-10.867891 1.107245,-3.255968 2.291551,-5.81852 5.475385,-5.81852 h 4.926619 11.49548 v 0.02137 l -11.49548,-0.03866 v -5.032088 z"
         inkscape:connector-curvature="0"
         id="path3530"
         style="fill:none;stroke:url(#linearGradient8390);stroke-width:3.5471406;stroke-opacity:1" />
      <path
         d="m 40.030252,28.998655 c 0,-1.069172 0.889328,-1.933607 1.991143,-1.933607 1.097882,0 1.991135,0.864435 1.991135,1.933607 0,1.065379 -0.893253,1.929814 -1.991135,1.929814 -1.101815,0 -1.991143,-0.864435 -1.991143,-1.929814 z"
         inkscape:connector-curvature="0"
         id="path8354"
         style="fill:#274e70;fill-opacity:1;stroke-width:2.17687893" />
      <path
         d="m 40.030252,29.998655 c 0,-1.069172 0.889328,-1.933607 1.991143,-1.933607 1.097882,0 1.991135,0.864435 1.991135,1.933607 0,1.065379 -0.893253,1.929814 -1.991135,1.929814 -1.101815,0 -1.991143,-0.864435 -1.991143,-1.929814 z"
         inkscape:connector-curvature="0"
         id="path2734"
         style="fill:#ffffff;stroke-width:2.17687893" />
    </g>
  </g>
</svg>
